<svg xmlns="http://www.w3.org/2000/svg" version="1.1" xmlns:xlink="http://www.w3.org/1999/xlink" xmlns:svgjs="http://svgjs.dev/svgjs" viewBox="0 0 800 800" opacity="0.57" width="800" height="800"><g stroke-width="0.5" stroke="hsla(228, 49%, 43%, 1.00)" fill="none"><rect width="72.72727272727273" height="80" x="0" y="0" opacity="0.15"></rect><circle r="3.75" cx="0" cy="0" fill="hsla(228, 49%, 43%, 1.00)" stroke="none"></circle><rect width="72.72727272727273" height="80" x="72.72727272727273" y="0" opacity="0.15"></rect><circle r="3.75" cx="72.72727272727273" cy="0" fill="hsla(228, 49%, 43%, 1.00)" stroke="none"></circle><rect width="72.72727272727273" height="80" x="145.45454545454547" y="0" opacity="0.15"></rect><circle r="3.75" cx="145.45454545454547" cy="0" fill="hsla(228, 49%, 43%, 1.00)" stroke="none"></circle><rect width="72.72727272727273" height="80" x="218.1818181818182" y="0" opacity="0.15"></rect><circle r="3.75" cx="218.1818181818182" cy="0" fill="hsla(228, 49%, 43%, 1.00)" stroke="none"></circle><rect width="72.72727272727273" height="80" x="290.90909090909093" y="0" opacity="0.15"></rect><circle r="3.75" cx="290.90909090909093" cy="0" fill="hsla(228, 49%, 43%, 1.00)" stroke="none"></circle><rect width="72.72727272727273" height="80" x="363.6363636363637" y="0" opacity="0.15"></rect><circle r="3.75" cx="363.6363636363637" cy="0" fill="hsla(228, 49%, 43%, 1.00)" stroke="none"></circle><rect width="72.72727272727273" height="80" x="436.36363636363643" y="0" opacity="0.15"></rect><circle r="3.75" cx="436.36363636363643" cy="0" fill="hsla(228, 49%, 43%, 1.00)" stroke="none"></circle><rect width="72.72727272727273" height="80" x="509.0909090909092" y="0" opacity="0.15"></rect><circle r="3.75" cx="509.0909090909092" cy="0" fill="hsla(228, 49%, 43%, 1.00)" stroke="none"></circle><rect width="72.72727272727273" height="80" x="581.8181818181819" y="0" opacity="0.15"></rect><circle r="3.75" cx="581.8181818181819" cy="0" fill="hsla(228, 49%, 43%, 1.00)" stroke="none"></circle><rect width="72.72727272727273" height="80" x="654.5454545454546" y="0" opacity="0.15"></rect><circle r="3.75" cx="654.5454545454546" cy="0" fill="hsla(228, 49%, 43%, 1.00)" stroke="none"></circle><rect width="72.72727272727273" height="80" x="727.2727272727274" y="0" opacity="0.15"></rect><circle r="3.75" cx="727.2727272727274" cy="0" fill="hsla(228, 49%, 43%, 1.00)" stroke="none"></circle><rect width="72.72727272727273" height="80" x="800.0000000000001" y="0" opacity="0.15"></rect><circle r="3.75" cx="800.0000000000001" cy="0" fill="hsla(228, 49%, 43%, 1.00)" stroke="none"></circle><rect width="72.72727272727273" height="80" x="0" y="80" opacity="0.15"></rect><circle r="3.75" cx="0" cy="80" fill="hsla(228, 49%, 43%, 1.00)" stroke="none"></circle><rect width="72.72727272727273" height="80" x="72.72727272727273" y="80" opacity="0.15"></rect><circle r="3.75" cx="72.72727272727273" cy="80" fill="hsla(228, 49%, 43%, 1.00)" stroke="none"></circle><rect width="72.72727272727273" height="80" x="145.45454545454547" y="80" opacity="0.15"></rect><circle r="3.75" cx="145.45454545454547" cy="80" fill="hsla(228, 49%, 43%, 1.00)" stroke="none"></circle><rect width="72.72727272727273" height="80" x="218.1818181818182" y="80" opacity="0.15"></rect><circle r="3.75" cx="218.1818181818182" cy="80" fill="hsla(228, 49%, 43%, 1.00)" stroke="none"></circle><rect width="72.72727272727273" height="80" x="290.90909090909093" y="80" opacity="0.15"></rect><circle r="3.75" cx="290.90909090909093" cy="80" fill="hsla(228, 49%, 43%, 1.00)" stroke="none"></circle><rect width="72.72727272727273" height="80" x="363.6363636363637" y="80" opacity="0.15"></rect><circle r="3.75" cx="363.6363636363637" cy="80" fill="hsla(228, 49%, 43%, 1.00)" stroke="none"></circle><rect width="72.72727272727273" height="80" x="436.36363636363643" y="80" opacity="0.15"></rect><circle r="3.75" cx="436.36363636363643" cy="80" fill="hsla(228, 49%, 43%, 1.00)" stroke="none"></circle><rect width="72.72727272727273" height="80" x="509.0909090909092" y="80" opacity="0.15"></rect><circle r="3.75" cx="509.0909090909092" cy="80" fill="hsla(228, 49%, 43%, 1.00)" stroke="none"></circle><rect width="72.72727272727273" height="80" x="581.8181818181819" y="80" opacity="0.15"></rect><circle r="3.75" cx="581.8181818181819" cy="80" fill="hsla(228, 49%, 43%, 1.00)" stroke="none"></circle><rect width="72.72727272727273" height="80" x="654.5454545454546" y="80" opacity="0.15"></rect><circle r="3.75" cx="654.5454545454546" cy="80" fill="hsla(228, 49%, 43%, 1.00)" stroke="none"></circle><rect width="72.72727272727273" height="80" x="727.2727272727274" y="80" opacity="0.15"></rect><circle r="3.75" cx="727.2727272727274" cy="80" fill="hsla(228, 49%, 43%, 1.00)" stroke="none"></circle><rect width="72.72727272727273" height="80" x="800.0000000000001" y="80" opacity="0.15"></rect><circle r="3.75" cx="800.0000000000001" cy="80" fill="hsla(228, 49%, 43%, 1.00)" stroke="none"></circle><rect width="72.72727272727273" height="80" x="0" y="160" opacity="0.15"></rect><circle r="3.75" cx="0" cy="160" fill="hsla(228, 49%, 43%, 1.00)" stroke="none"></circle><rect width="72.72727272727273" height="80" x="72.72727272727273" y="160" opacity="0.15"></rect><circle r="3.75" cx="72.72727272727273" cy="160" fill="hsla(228, 49%, 43%, 1.00)" stroke="none"></circle><rect width="72.72727272727273" height="80" x="145.45454545454547" y="160" opacity="0.15"></rect><circle r="3.75" cx="145.45454545454547" cy="160" fill="hsla(228, 49%, 43%, 1.00)" stroke="none"></circle><rect width="72.72727272727273" height="80" x="218.1818181818182" y="160" opacity="0.15"></rect><circle r="3.75" cx="218.1818181818182" cy="160" fill="hsla(228, 49%, 43%, 1.00)" stroke="none"></circle><rect width="72.72727272727273" height="80" x="290.90909090909093" y="160" opacity="0.15"></rect><circle r="3.75" cx="290.90909090909093" cy="160" fill="hsla(228, 49%, 43%, 1.00)" stroke="none"></circle><rect width="72.72727272727273" height="80" x="363.6363636363637" y="160" opacity="0.15"></rect><circle r="3.75" cx="363.6363636363637" cy="160" fill="hsla(228, 49%, 43%, 1.00)" stroke="none"></circle><rect width="72.72727272727273" height="80" x="436.36363636363643" y="160" opacity="0.15"></rect><circle r="3.75" cx="436.36363636363643" cy="160" fill="hsla(228, 49%, 43%, 1.00)" stroke="none"></circle><rect width="72.72727272727273" height="80" x="509.0909090909092" y="160" opacity="0.15"></rect><circle r="3.75" cx="509.0909090909092" cy="160" fill="hsla(228, 49%, 43%, 1.00)" stroke="none"></circle><rect width="72.72727272727273" height="80" x="581.8181818181819" y="160" opacity="0.15"></rect><circle r="3.75" cx="581.8181818181819" cy="160" fill="hsla(228, 49%, 43%, 1.00)" stroke="none"></circle><rect width="72.72727272727273" height="80" x="654.5454545454546" y="160" opacity="0.15"></rect><circle r="3.75" cx="654.5454545454546" cy="160" fill="hsla(228, 49%, 43%, 1.00)" stroke="none"></circle><rect width="72.72727272727273" height="80" x="727.2727272727274" y="160" opacity="0.15"></rect><circle r="3.75" cx="727.2727272727274" cy="160" fill="hsla(228, 49%, 43%, 1.00)" stroke="none"></circle><rect width="72.72727272727273" height="80" x="800.0000000000001" y="160" opacity="0.15"></rect><circle r="3.75" cx="800.0000000000001" cy="160" fill="hsla(228, 49%, 43%, 1.00)" stroke="none"></circle><rect width="72.72727272727273" height="80" x="0" y="240" opacity="0.15"></rect><circle r="3.75" cx="0" cy="240" fill="hsla(228, 49%, 43%, 1.00)" stroke="none"></circle><rect width="72.72727272727273" height="80" x="72.72727272727273" y="240" opacity="0.15"></rect><circle r="3.75" cx="72.72727272727273" cy="240" fill="hsla(228, 49%, 43%, 1.00)" stroke="none"></circle><rect width="72.72727272727273" height="80" x="145.45454545454547" y="240" opacity="0.15"></rect><circle r="3.75" cx="145.45454545454547" cy="240" fill="hsla(228, 49%, 43%, 1.00)" stroke="none"></circle><rect width="72.72727272727273" height="80" x="218.1818181818182" y="240" opacity="0.15"></rect><circle r="3.75" cx="218.1818181818182" cy="240" fill="hsla(228, 49%, 43%, 1.00)" stroke="none"></circle><rect width="72.72727272727273" height="80" x="290.90909090909093" y="240" opacity="0.15"></rect><circle r="3.75" cx="290.90909090909093" cy="240" fill="hsla(228, 49%, 43%, 1.00)" stroke="none"></circle><rect width="72.72727272727273" height="80" x="363.6363636363637" y="240" opacity="0.15"></rect><circle r="3.75" cx="363.6363636363637" cy="240" fill="hsla(228, 49%, 43%, 1.00)" stroke="none"></circle><rect width="72.72727272727273" height="80" x="436.36363636363643" y="240" opacity="0.15"></rect><circle r="3.75" cx="436.36363636363643" cy="240" fill="hsla(228, 49%, 43%, 1.00)" stroke="none"></circle><rect width="72.72727272727273" height="80" x="509.0909090909092" y="240" opacity="0.15"></rect><circle r="3.75" cx="509.0909090909092" cy="240" fill="hsla(228, 49%, 43%, 1.00)" stroke="none"></circle><rect width="72.72727272727273" height="80" x="581.8181818181819" y="240" opacity="0.15"></rect><circle r="3.75" cx="581.8181818181819" cy="240" fill="hsla(228, 49%, 43%, 1.00)" stroke="none"></circle><rect width="72.72727272727273" height="80" x="654.5454545454546" y="240" opacity="0.15"></rect><circle r="3.75" cx="654.5454545454546" cy="240" fill="hsla(228, 49%, 43%, 1.00)" stroke="none"></circle><rect width="72.72727272727273" height="80" x="727.2727272727274" y="240" opacity="0.15"></rect><circle r="3.75" cx="727.2727272727274" cy="240" fill="hsla(228, 49%, 43%, 1.00)" stroke="none"></circle><rect width="72.72727272727273" height="80" x="800.0000000000001" y="240" opacity="0.15"></rect><circle r="3.75" cx="800.0000000000001" cy="240" fill="hsla(228, 49%, 43%, 1.00)" stroke="none"></circle><rect width="72.72727272727273" height="80" x="0" y="320" opacity="0.15"></rect><circle r="3.75" cx="0" cy="320" fill="hsla(228, 49%, 43%, 1.00)" stroke="none"></circle><rect width="72.72727272727273" height="80" x="72.72727272727273" y="320" opacity="0.15"></rect><circle r="3.75" cx="72.72727272727273" cy="320" fill="hsla(228, 49%, 43%, 1.00)" stroke="none"></circle><rect width="72.72727272727273" height="80" x="145.45454545454547" y="320" opacity="0.15"></rect><circle r="3.75" cx="145.45454545454547" cy="320" fill="hsla(228, 49%, 43%, 1.00)" stroke="none"></circle><rect width="72.72727272727273" height="80" x="218.1818181818182" y="320" opacity="0.15"></rect><circle r="3.75" cx="218.1818181818182" cy="320" fill="hsla(228, 49%, 43%, 1.00)" stroke="none"></circle><rect width="72.72727272727273" height="80" x="290.90909090909093" y="320" opacity="0.15"></rect><circle r="3.75" cx="290.90909090909093" cy="320" fill="hsla(228, 49%, 43%, 1.00)" stroke="none"></circle><rect width="72.72727272727273" height="80" x="363.6363636363637" y="320" opacity="0.15"></rect><circle r="3.75" cx="363.6363636363637" cy="320" fill="hsla(228, 49%, 43%, 1.00)" stroke="none"></circle><rect width="72.72727272727273" height="80" x="436.36363636363643" y="320" opacity="0.15"></rect><circle r="3.75" cx="436.36363636363643" cy="320" fill="hsla(228, 49%, 43%, 1.00)" stroke="none"></circle><rect width="72.72727272727273" height="80" x="509.0909090909092" y="320" opacity="0.15"></rect><circle r="3.75" cx="509.0909090909092" cy="320" fill="hsla(228, 49%, 43%, 1.00)" stroke="none"></circle><rect width="72.72727272727273" height="80" x="581.8181818181819" y="320" opacity="0.15"></rect><circle r="3.75" cx="581.8181818181819" cy="320" fill="hsla(228, 49%, 43%, 1.00)" stroke="none"></circle><rect width="72.72727272727273" height="80" x="654.5454545454546" y="320" opacity="0.15"></rect><circle r="3.75" cx="654.5454545454546" cy="320" fill="hsla(228, 49%, 43%, 1.00)" stroke="none"></circle><rect width="72.72727272727273" height="80" x="727.2727272727274" y="320" opacity="0.15"></rect><circle r="3.75" cx="727.2727272727274" cy="320" fill="hsla(228, 49%, 43%, 1.00)" stroke="none"></circle><rect width="72.72727272727273" height="80" x="800.0000000000001" y="320" opacity="0.15"></rect><circle r="3.75" cx="800.0000000000001" cy="320" fill="hsla(228, 49%, 43%, 1.00)" stroke="none"></circle><rect width="72.72727272727273" height="80" x="0" y="400" opacity="0.15"></rect><circle r="3.75" cx="0" cy="400" fill="hsla(228, 49%, 43%, 1.00)" stroke="none"></circle><rect width="72.72727272727273" height="80" x="72.72727272727273" y="400" opacity="0.15"></rect><circle r="3.75" cx="72.72727272727273" cy="400" fill="hsla(228, 49%, 43%, 1.00)" stroke="none"></circle><rect width="72.72727272727273" height="80" x="145.45454545454547" y="400" opacity="0.15"></rect><circle r="3.75" cx="145.45454545454547" cy="400" fill="hsla(228, 49%, 43%, 1.00)" stroke="none"></circle><rect width="72.72727272727273" height="80" x="218.1818181818182" y="400" opacity="0.15"></rect><circle r="3.75" cx="218.1818181818182" cy="400" fill="hsla(228, 49%, 43%, 1.00)" stroke="none"></circle><rect width="72.72727272727273" height="80" x="290.90909090909093" y="400" opacity="0.15"></rect><circle r="3.75" cx="290.90909090909093" cy="400" fill="hsla(228, 49%, 43%, 1.00)" stroke="none"></circle><rect width="72.72727272727273" height="80" x="363.6363636363637" y="400" opacity="0.15"></rect><circle r="3.75" cx="363.6363636363637" cy="400" fill="hsla(228, 49%, 43%, 1.00)" stroke="none"></circle><rect width="72.72727272727273" height="80" x="436.36363636363643" y="400" opacity="0.15"></rect><circle r="3.75" cx="436.36363636363643" cy="400" fill="hsla(228, 49%, 43%, 1.00)" stroke="none"></circle><rect width="72.72727272727273" height="80" x="509.0909090909092" y="400" opacity="0.15"></rect><circle r="3.75" cx="509.0909090909092" cy="400" fill="hsla(228, 49%, 43%, 1.00)" stroke="none"></circle><rect width="72.72727272727273" height="80" x="581.8181818181819" y="400" opacity="0.15"></rect><circle r="3.75" cx="581.8181818181819" cy="400" fill="hsla(228, 49%, 43%, 1.00)" stroke="none"></circle><rect width="72.72727272727273" height="80" x="654.5454545454546" y="400" opacity="0.15"></rect><circle r="3.75" cx="654.5454545454546" cy="400" fill="hsla(228, 49%, 43%, 1.00)" stroke="none"></circle><rect width="72.72727272727273" height="80" x="727.2727272727274" y="400" opacity="0.15"></rect><circle r="3.75" cx="727.2727272727274" cy="400" fill="hsla(228, 49%, 43%, 1.00)" stroke="none"></circle><rect width="72.72727272727273" height="80" x="800.0000000000001" y="400" opacity="0.15"></rect><circle r="3.75" cx="800.0000000000001" cy="400" fill="hsla(228, 49%, 43%, 1.00)" stroke="none"></circle><rect width="72.72727272727273" height="80" x="0" y="480" opacity="0.15"></rect><circle r="3.75" cx="0" cy="480" fill="hsla(228, 49%, 43%, 1.00)" stroke="none"></circle><rect width="72.72727272727273" height="80" x="72.72727272727273" y="480" opacity="0.15"></rect><circle r="3.75" cx="72.72727272727273" cy="480" fill="hsla(228, 49%, 43%, 1.00)" stroke="none"></circle><rect width="72.72727272727273" height="80" x="145.45454545454547" y="480" opacity="0.15"></rect><circle r="3.75" cx="145.45454545454547" cy="480" fill="hsla(228, 49%, 43%, 1.00)" stroke="none"></circle><rect width="72.72727272727273" height="80" x="218.1818181818182" y="480" opacity="0.15"></rect><circle r="3.75" cx="218.1818181818182" cy="480" fill="hsla(228, 49%, 43%, 1.00)" stroke="none"></circle><rect width="72.72727272727273" height="80" x="290.90909090909093" y="480" opacity="0.15"></rect><circle r="3.75" cx="290.90909090909093" cy="480" fill="hsla(228, 49%, 43%, 1.00)" stroke="none"></circle><rect width="72.72727272727273" height="80" x="363.6363636363637" y="480" opacity="0.15"></rect><circle r="3.75" cx="363.6363636363637" cy="480" fill="hsla(228, 49%, 43%, 1.00)" stroke="none"></circle><rect width="72.72727272727273" height="80" x="436.36363636363643" y="480" opacity="0.15"></rect><circle r="3.75" cx="436.36363636363643" cy="480" fill="hsla(228, 49%, 43%, 1.00)" stroke="none"></circle><rect width="72.72727272727273" height="80" x="509.0909090909092" y="480" opacity="0.15"></rect><circle r="3.75" cx="509.0909090909092" cy="480" fill="hsla(228, 49%, 43%, 1.00)" stroke="none"></circle><rect width="72.72727272727273" height="80" x="581.8181818181819" y="480" opacity="0.15"></rect><circle r="3.75" cx="581.8181818181819" cy="480" fill="hsla(228, 49%, 43%, 1.00)" stroke="none"></circle><rect width="72.72727272727273" height="80" x="654.5454545454546" y="480" opacity="0.15"></rect><circle r="3.75" cx="654.5454545454546" cy="480" fill="hsla(228, 49%, 43%, 1.00)" stroke="none"></circle><rect width="72.72727272727273" height="80" x="727.2727272727274" y="480" opacity="0.15"></rect><circle r="3.75" cx="727.2727272727274" cy="480" fill="hsla(228, 49%, 43%, 1.00)" stroke="none"></circle><rect width="72.72727272727273" height="80" x="800.0000000000001" y="480" opacity="0.15"></rect><circle r="3.75" cx="800.0000000000001" cy="480" fill="hsla(228, 49%, 43%, 1.00)" stroke="none"></circle><rect width="72.72727272727273" height="80" x="0" y="560" opacity="0.15"></rect><circle r="3.75" cx="0" cy="560" fill="hsla(228, 49%, 43%, 1.00)" stroke="none"></circle><rect width="72.72727272727273" height="80" x="72.72727272727273" y="560" opacity="0.15"></rect><circle r="3.75" cx="72.72727272727273" cy="560" fill="hsla(228, 49%, 43%, 1.00)" stroke="none"></circle><rect width="72.72727272727273" height="80" x="145.45454545454547" y="560" opacity="0.15"></rect><circle r="3.75" cx="145.45454545454547" cy="560" fill="hsla(228, 49%, 43%, 1.00)" stroke="none"></circle><rect width="72.72727272727273" height="80" x="218.1818181818182" y="560" opacity="0.15"></rect><circle r="3.75" cx="218.1818181818182" cy="560" fill="hsla(228, 49%, 43%, 1.00)" stroke="none"></circle><rect width="72.72727272727273" height="80" x="290.90909090909093" y="560" opacity="0.15"></rect><circle r="3.75" cx="290.90909090909093" cy="560" fill="hsla(228, 49%, 43%, 1.00)" stroke="none"></circle><rect width="72.72727272727273" height="80" x="363.6363636363637" y="560" opacity="0.15"></rect><circle r="3.75" cx="363.6363636363637" cy="560" fill="hsla(228, 49%, 43%, 1.00)" stroke="none"></circle><rect width="72.72727272727273" height="80" x="436.36363636363643" y="560" opacity="0.15"></rect><circle r="3.75" cx="436.36363636363643" cy="560" fill="hsla(228, 49%, 43%, 1.00)" stroke="none"></circle><rect width="72.72727272727273" height="80" x="509.0909090909092" y="560" opacity="0.15"></rect><circle r="3.75" cx="509.0909090909092" cy="560" fill="hsla(228, 49%, 43%, 1.00)" stroke="none"></circle><rect width="72.72727272727273" height="80" x="581.8181818181819" y="560" opacity="0.15"></rect><circle r="3.75" cx="581.8181818181819" cy="560" fill="hsla(228, 49%, 43%, 1.00)" stroke="none"></circle><rect width="72.72727272727273" height="80" x="654.5454545454546" y="560" opacity="0.15"></rect><circle r="3.75" cx="654.5454545454546" cy="560" fill="hsla(228, 49%, 43%, 1.00)" stroke="none"></circle><rect width="72.72727272727273" height="80" x="727.2727272727274" y="560" opacity="0.15"></rect><circle r="3.75" cx="727.2727272727274" cy="560" fill="hsla(228, 49%, 43%, 1.00)" stroke="none"></circle><rect width="72.72727272727273" height="80" x="800.0000000000001" y="560" opacity="0.15"></rect><circle r="3.75" cx="800.0000000000001" cy="560" fill="hsla(228, 49%, 43%, 1.00)" stroke="none"></circle><rect width="72.72727272727273" height="80" x="0" y="640" opacity="0.15"></rect><circle r="3.75" cx="0" cy="640" fill="hsla(228, 49%, 43%, 1.00)" stroke="none"></circle><rect width="72.72727272727273" height="80" x="72.72727272727273" y="640" opacity="0.15"></rect><circle r="3.75" cx="72.72727272727273" cy="640" fill="hsla(228, 49%, 43%, 1.00)" stroke="none"></circle><rect width="72.72727272727273" height="80" x="145.45454545454547" y="640" opacity="0.15"></rect><circle r="3.75" cx="145.45454545454547" cy="640" fill="hsla(228, 49%, 43%, 1.00)" stroke="none"></circle><rect width="72.72727272727273" height="80" x="218.1818181818182" y="640" opacity="0.15"></rect><circle r="3.75" cx="218.1818181818182" cy="640" fill="hsla(228, 49%, 43%, 1.00)" stroke="none"></circle><rect width="72.72727272727273" height="80" x="290.90909090909093" y="640" opacity="0.15"></rect><circle r="3.75" cx="290.90909090909093" cy="640" fill="hsla(228, 49%, 43%, 1.00)" stroke="none"></circle><rect width="72.72727272727273" height="80" x="363.6363636363637" y="640" opacity="0.15"></rect><circle r="3.75" cx="363.6363636363637" cy="640" fill="hsla(228, 49%, 43%, 1.00)" stroke="none"></circle><rect width="72.72727272727273" height="80" x="436.36363636363643" y="640" opacity="0.15"></rect><circle r="3.75" cx="436.36363636363643" cy="640" fill="hsla(228, 49%, 43%, 1.00)" stroke="none"></circle><rect width="72.72727272727273" height="80" x="509.0909090909092" y="640" opacity="0.15"></rect><circle r="3.75" cx="509.0909090909092" cy="640" fill="hsla(228, 49%, 43%, 1.00)" stroke="none"></circle><rect width="72.72727272727273" height="80" x="581.8181818181819" y="640" opacity="0.15"></rect><circle r="3.75" cx="581.8181818181819" cy="640" fill="hsla(228, 49%, 43%, 1.00)" stroke="none"></circle><rect width="72.72727272727273" height="80" x="654.5454545454546" y="640" opacity="0.15"></rect><circle r="3.75" cx="654.5454545454546" cy="640" fill="hsla(228, 49%, 43%, 1.00)" stroke="none"></circle><rect width="72.72727272727273" height="80" x="727.2727272727274" y="640" opacity="0.15"></rect><circle r="3.75" cx="727.2727272727274" cy="640" fill="hsla(228, 49%, 43%, 1.00)" stroke="none"></circle><rect width="72.72727272727273" height="80" x="800.0000000000001" y="640" opacity="0.15"></rect><circle r="3.75" cx="800.0000000000001" cy="640" fill="hsla(228, 49%, 43%, 1.00)" stroke="none"></circle><rect width="72.72727272727273" height="80" x="0" y="720" opacity="0.15"></rect><circle r="3.75" cx="0" cy="720" fill="hsla(228, 49%, 43%, 1.00)" stroke="none"></circle><rect width="72.72727272727273" height="80" x="72.72727272727273" y="720" opacity="0.15"></rect><circle r="3.75" cx="72.72727272727273" cy="720" fill="hsla(228, 49%, 43%, 1.00)" stroke="none"></circle><rect width="72.72727272727273" height="80" x="145.45454545454547" y="720" opacity="0.15"></rect><circle r="3.75" cx="145.45454545454547" cy="720" fill="hsla(228, 49%, 43%, 1.00)" stroke="none"></circle><rect width="72.72727272727273" height="80" x="218.1818181818182" y="720" opacity="0.15"></rect><circle r="3.75" cx="218.1818181818182" cy="720" fill="hsla(228, 49%, 43%, 1.00)" stroke="none"></circle><rect width="72.72727272727273" height="80" x="290.90909090909093" y="720" opacity="0.15"></rect><circle r="3.75" cx="290.90909090909093" cy="720" fill="hsla(228, 49%, 43%, 1.00)" stroke="none"></circle><rect width="72.72727272727273" height="80" x="363.6363636363637" y="720" opacity="0.15"></rect><circle r="3.75" cx="363.6363636363637" cy="720" fill="hsla(228, 49%, 43%, 1.00)" stroke="none"></circle><rect width="72.72727272727273" height="80" x="436.36363636363643" y="720" opacity="0.15"></rect><circle r="3.75" cx="436.36363636363643" cy="720" fill="hsla(228, 49%, 43%, 1.00)" stroke="none"></circle><rect width="72.72727272727273" height="80" x="509.0909090909092" y="720" opacity="0.15"></rect><circle r="3.75" cx="509.0909090909092" cy="720" fill="hsla(228, 49%, 43%, 1.00)" stroke="none"></circle><rect width="72.72727272727273" height="80" x="581.8181818181819" y="720" opacity="0.15"></rect><circle r="3.75" cx="581.8181818181819" cy="720" fill="hsla(228, 49%, 43%, 1.00)" stroke="none"></circle><rect width="72.72727272727273" height="80" x="654.5454545454546" y="720" opacity="0.15"></rect><circle r="3.75" cx="654.5454545454546" cy="720" fill="hsla(228, 49%, 43%, 1.00)" stroke="none"></circle><rect width="72.72727272727273" height="80" x="727.2727272727274" y="720" opacity="0.15"></rect><circle r="3.75" cx="727.2727272727274" cy="720" fill="hsla(228, 49%, 43%, 1.00)" stroke="none"></circle><rect width="72.72727272727273" height="80" x="800.0000000000001" y="720" opacity="0.15"></rect><circle r="3.75" cx="800.0000000000001" cy="720" fill="hsla(228, 49%, 43%, 1.00)" stroke="none"></circle><rect width="72.72727272727273" height="80" x="0" y="800" opacity="0.15"></rect><circle r="3.75" cx="0" cy="800" fill="hsla(228, 49%, 43%, 1.00)" stroke="none"></circle><rect width="72.72727272727273" height="80" x="72.72727272727273" y="800" opacity="0.15"></rect><circle r="3.75" cx="72.72727272727273" cy="800" fill="hsla(228, 49%, 43%, 1.00)" stroke="none"></circle><rect width="72.72727272727273" height="80" x="145.45454545454547" y="800" opacity="0.15"></rect><circle r="3.75" cx="145.45454545454547" cy="800" fill="hsla(228, 49%, 43%, 1.00)" stroke="none"></circle><rect width="72.72727272727273" height="80" x="218.1818181818182" y="800" opacity="0.15"></rect><circle r="3.75" cx="218.1818181818182" cy="800" fill="hsla(228, 49%, 43%, 1.00)" stroke="none"></circle><rect width="72.72727272727273" height="80" x="290.90909090909093" y="800" opacity="0.15"></rect><circle r="3.75" cx="290.90909090909093" cy="800" fill="hsla(228, 49%, 43%, 1.00)" stroke="none"></circle><rect width="72.72727272727273" height="80" x="363.6363636363637" y="800" opacity="0.15"></rect><circle r="3.75" cx="363.6363636363637" cy="800" fill="hsla(228, 49%, 43%, 1.00)" stroke="none"></circle><rect width="72.72727272727273" height="80" x="436.36363636363643" y="800" opacity="0.15"></rect><circle r="3.75" cx="436.36363636363643" cy="800" fill="hsla(228, 49%, 43%, 1.00)" stroke="none"></circle><rect width="72.72727272727273" height="80" x="509.0909090909092" y="800" opacity="0.15"></rect><circle r="3.75" cx="509.0909090909092" cy="800" fill="hsla(228, 49%, 43%, 1.00)" stroke="none"></circle><rect width="72.72727272727273" height="80" x="581.8181818181819" y="800" opacity="0.15"></rect><circle r="3.75" cx="581.8181818181819" cy="800" fill="hsla(228, 49%, 43%, 1.00)" stroke="none"></circle><rect width="72.72727272727273" height="80" x="654.5454545454546" y="800" opacity="0.15"></rect><circle r="3.75" cx="654.5454545454546" cy="800" fill="hsla(228, 49%, 43%, 1.00)" stroke="none"></circle><rect width="72.72727272727273" height="80" x="727.2727272727274" y="800" opacity="0.15"></rect><circle r="3.75" cx="727.2727272727274" cy="800" fill="hsla(228, 49%, 43%, 1.00)" stroke="none"></circle><rect width="72.72727272727273" height="80" x="800.0000000000001" y="800" opacity="0.15"></rect><circle r="3.75" cx="800.0000000000001" cy="800" fill="hsla(228, 49%, 43%, 1.00)" stroke="none"></circle></g></svg>